# Blender v2.79 (sub 0) OBJ File: 'building2.blend'
# www.blender.org
mtllib building2.mtl
o Cube.001
v -0.253105 0.000426 0.358083
v -0.253105 0.508407 0.358083
v -0.253105 0.000426 -0.150076
v -0.253105 0.508407 -0.150076
v 0.264143 0.000426 0.358083
v 0.264143 0.508407 0.358083
v 0.264143 0.000426 -0.150076
v 0.264143 0.508407 -0.150076
v -0.253105 0.000426 0.417631
v -0.253105 0.382637 0.417631
v 0.264143 0.382637 0.417631
v 0.264143 0.000426 0.417631
v -0.253105 0.000426 0.608544
v -0.253105 0.382637 0.608544
v 0.264143 0.382637 0.608544
v 0.264143 0.000426 0.608544
v -0.165404 0.001828 0.608544
v -0.165404 0.254429 0.608544
v 0.176442 0.254429 0.608544
v 0.176442 0.001828 0.608544
v -0.165404 0.001828 0.349914
v -0.165404 0.254429 0.349914
v 0.176442 0.254429 0.349914
v 0.176442 0.001828 0.349914
v 0.264143 0.428414 -0.110140
v 0.264143 0.000278 -0.110140
v 0.264143 0.000278 0.318146
v 0.264143 0.428414 0.318146
v 0.320331 0.428414 -0.110140
v 0.320331 0.000278 -0.110140
v 0.320331 0.000278 0.318146
v 0.320331 0.428414 0.318146
v 0.336890 0.505102 -0.151115
v 0.336890 0.000278 -0.151115
v 0.336890 0.000278 0.358340
v 0.336890 0.505102 0.358340
v 0.600650 0.505102 -0.151115
v 0.600650 0.000278 -0.151115
v 0.600650 0.000278 0.358340
v 0.600650 0.505102 0.358340
v -0.255673 0.428414 0.317756
v -0.255673 0.000278 0.317756
v -0.255673 0.000278 -0.110531
v -0.255673 0.428414 -0.110531
v -0.311860 0.428414 0.317756
v -0.311860 0.000278 0.317756
v -0.311860 0.000278 -0.110531
v -0.311860 0.428414 -0.110531
v -0.328420 0.505102 0.358730
v -0.328420 0.000278 0.358730
v -0.328420 0.000278 -0.150724
v -0.328420 0.505102 -0.150724
v -0.592180 0.505102 0.358730
v -0.592180 0.000278 0.358730
v -0.592180 0.000278 -0.150724
v -0.592180 0.505102 -0.150724
v -0.106097 0.306701 -0.203729
v -0.106097 0.004755 -0.203729
v 0.110455 0.004755 -0.203729
v 0.110455 0.306701 -0.203729
v -0.151348 0.428414 -0.204218
v -0.151348 0.000278 -0.204218
v 0.155707 0.000278 -0.204218
v 0.155707 0.428414 -0.204218
v -0.180724 0.505102 -0.227315
v -0.180724 0.000278 -0.227315
v 0.184523 0.000278 -0.227315
v 0.184523 0.505102 -0.227315
v -0.180724 0.505102 -0.595213
v -0.180724 0.000278 -0.595213
v 0.184523 0.000278 -0.595213
v 0.184523 0.505102 -0.595213
v -0.106097 0.306701 0.138873
v 0.107966 0.004755 -0.101763
v 0.110455 0.004755 0.138873
v 0.110455 0.306701 0.138873
vn -1.0000 0.0000 0.0000
vn 0.0000 0.0000 -1.0000
vn 1.0000 0.0000 0.0000
vn 0.0000 0.4279 0.9038
vn 0.0000 -1.0000 0.0000
vn 0.0000 1.0000 0.0000
vn 0.0000 0.0000 1.0000
vn -1.0000 0.0001 0.0000
vn -0.9246 0.0000 0.3809
vn -0.9775 0.2111 0.0000
vn -0.9271 0.0000 -0.3747
vn 0.9246 0.0000 -0.3809
vn 0.9775 0.2111 0.0000
vn 0.9271 0.0000 0.3747
vn 0.0000 0.0040 1.0000
vn 0.6254 0.0000 0.7803
vn -0.0108 0.0000 0.9999
vn 0.0108 0.0000 0.9999
vn 0.0000 -0.1084 0.9941
vn 0.0000 0.2884 0.9575
vn -0.6181 0.0000 0.7861
vn -0.8084 -0.4416 0.3892
usemtl None
s off
f 1//1 2//1 4//1 3//1
f 3//2 4//2 8//2 7//2
f 6//3 5//3 27//3 28//3
f 6//4 2//4 10//4 11//4
f 3//5 7//5 5//5 1//5
f 8//6 4//6 2//6 6//6
f 11//6 10//6 14//6 15//6
f 5//3 6//3 11//3 12//3
f 2//1 1//1 9//1 10//1
f 1//5 5//5 12//5 9//5
f 13//7 16//7 20//7 17//7
f 12//3 11//3 15//3 16//3
f 9//5 12//5 16//5 13//5
f 10//1 9//1 13//1 14//1
f 19//5 18//5 22//5 23//5
f 14//7 13//7 17//7 18//7
f 15//7 14//7 18//7 19//7
f 16//7 15//7 19//7 20//7
f 24//7 23//7 22//7 21//7
f 20//1 19//1 23//1 24//1
f 17//6 20//6 24//6 21//6
f 18//3 17//3 21//3 22//3
f 25//6 28//6 32//6 29//6
f 5//8 7//8 26//8 27//8
f 8//3 6//3 28//3 25//3
f 7//3 8//3 25//3 26//3
f 32//9 31//9 35//9 36//9
f 26//2 25//2 29//2 30//2
f 28//7 27//7 31//7 32//7
f 27//5 26//5 30//5 31//5
f 33//6 36//6 40//6 37//6
f 31//5 30//5 34//5 35//5
f 29//10 32//10 36//10 33//10
f 30//11 29//11 33//11 34//11
f 38//3 37//3 40//3 39//3
f 34//2 33//2 37//2 38//2
f 36//7 35//7 39//7 40//7
f 35//5 34//5 38//5 39//5
f 41//6 44//6 48//6 45//6
f 48//12 47//12 51//12 52//12
f 42//7 41//7 45//7 46//7
f 44//2 43//2 47//2 48//2
f 43//5 42//5 46//5 47//5
f 49//6 52//6 56//6 53//6
f 47//5 46//5 50//5 51//5
f 45//13 48//13 52//13 49//13
f 46//14 45//14 49//14 50//14
f 54//1 53//1 56//1 55//1
f 50//7 49//7 53//7 54//7
f 52//2 51//2 55//2 56//2
f 51//5 50//5 54//5 55//5
f 57//15 60//15 64//15 61//15
f 64//16 63//16 67//16 68//16
f 58//17 57//17 61//17 62//17
f 60//18 59//18 63//18 64//18
f 59//19 58//19 62//19 63//19
f 65//6 68//6 72//6 69//6
f 63//5 62//5 66//5 67//5
f 61//20 64//20 68//20 65//20
f 62//21 61//21 65//21 66//21
f 70//2 69//2 72//2 71//2
f 66//1 65//1 69//1 70//1
f 68//3 67//3 71//3 72//3
f 67//5 66//5 70//5 71//5
f 60//6 57//6 73//6 76//6
f 57//22 58//22 74//22 73//22
f 59//3 60//3 76//3 75//3
f 58//5 59//5 75//5 74//5
