####
#
#	OBJ File Generated by LightWave3D
#	LightWave3D OBJ Export v2.3
#
####
o Examplebuilding.obj
mtllib Examplebuilding.mtl
g default
v -0.2 -4.76837e-009 0.2
v 0.2 -4.76837e-009 0.2
v 0.2 -4.76837e-009 -0.2
v -0.2 -4.76837e-009 -0.2
v -0.068 0.3132 -0.068
v 0.068 0.3132 -0.068
v 0.068 0.3132 0.068
v -0.068 0.3132 0.068
v -0.069 0.7282 0.068
v 0.067 0.7282 0.068
v 0.067 0.7282 -0.068
v -0.069 0.7282 -0.068
vt -0.57735 -0.57735
vt -0.57735 0.57735
vt 0.57735 -0.57735
vt 0.57735 0.57735
vn -0.696954 -0.168853 -0.696954
vn 0.696954 -0.168853 -0.696954
vn 0.696954 -0.168853 0.696954
vn -0.696954 -0.168853 0.696954
vn 0.696954 -0.168853 0.696954
vn 0.591589 0.547764 0.591589
vn -0.592069 0.546724 0.59207
vn -0.696954 -0.168853 0.696954
vn -0.696954 -0.168853 0.696954
vn -0.592069 0.546724 0.59207
vn -0.592069 0.546724 -0.59207
vn -0.696954 -0.168853 -0.696954
vn -0.696954 -0.168853 -0.696954
vn -0.592069 0.546724 -0.59207
vn 0.591589 0.547764 -0.591589
vn 0.696954 -0.168853 -0.696954
vn 0.696954 -0.168853 -0.696954
vn 0.591589 0.547764 -0.591589
vn 0.591589 0.547764 0.591589
vn 0.696954 -0.168853 0.696954
vn 0.591589 0.547764 0.591589
vn 0.591589 0.547764 -0.591589
vn -0.592069 0.546724 -0.59207
vn -0.592069 0.546724 0.59207
vn 0.707105 0.00170387 0.707107
vn -0.707105 -0.00170387 0.707107
vn -0.592069 0.546724 0.59207
vn 0.591589 0.547764 0.591589
vn -0.707105 -0.00170387 0.707107
vn -0.707105 -0.00170388 -0.707107
vn -0.592069 0.546724 -0.59207
vn -0.592069 0.546724 0.59207
vn -0.707105 -0.00170388 -0.707107
vn 0.707105 0.00170386 -0.707107
vn 0.591589 0.547764 -0.591589
vn -0.592069 0.546724 -0.59207
vn 0.707105 0.00170386 -0.707107
vn 0.707105 0.00170387 0.707107
vn 0.591589 0.547764 0.591589
vn 0.591589 0.547764 -0.591589
g group_Default
usemtl Default
s off
f 4/1/1 3/3/2 2/3/3 1/1/4
f 2/3/5 7/4/6 8/2/7 1/1/8
f 1/1/9 8/2/10 5/2/11 4/1/12
f 4/1/13 5/2/14 6/4/15 3/3/16
f 3/3/17 6/4/18 7/4/19 2/3/20
f 7/4/21 6/4/22 5/2/23 8/2/24
f 10/4/25 9/2/26 8/2/27 7/4/28
f 9/2/29 12/2/30 5/2/31 8/2/32
f 12/2/33 11/4/34 6/4/35 5/2/36
f 11/4/37 10/4/38 7/4/39 6/4/40
