####
#
#	OBJ File Generated by LightWave3D
#	LightWave3D OBJ Export v2.3
#
####
o obstacle.obj
mtllib obstacle.mtl
g default
v 0.115897 -1.43051e-008 0.190516
v 0.109777 0.0620581 0.164004
v 0.162687 0.0438817 0.151789
v 0.184604 -1.43051e-008 0.146729
v 0.162687 -0.0438817 0.151789
v 0.109777 -0.0620581 0.164004
v 0.0568658 -0.0438817 0.17622
v 0.0349495 -1.43051e-008 0.18128
v 0.0568658 0.0438817 0.17622
v 0.095 0.0877634 0.1
v 0.169827 0.0620581 0.0827248
v 0.200821 -1.43051e-008 0.0755692
v 0.169827 -0.0620581 0.0827248
v 0.095 -0.0877634 0.1
v 0.0201729 -0.0620581 0.117275
v -0.0108215 -1.43051e-008 0.124431
v 0.0201729 0.0620581 0.117275
v 0.0802234 0.0620581 0.0359956
v 0.133134 0.0438817 0.0237802
v 0.155051 -1.43051e-008 0.0187205
v 0.133134 -0.0438817 0.0237802
v 0.0802234 -0.0620581 0.0359956
v 0.0273127 -0.0438817 0.048211
v 0.00539633 -1.43051e-008 0.0532708
v 0.0273127 0.0438817 0.048211
v 0.0741028 -1.43051e-008 0.00948417
v 0.0575804 0.00183477 0.0361448
v 0.0480934 0.0980249 -0.00494804
v 0.130105 0.0698514 -0.0238819
v 0.164075 0.00183477 -0.0317246
v 0.130105 -0.0661819 -0.0238819
v 0.0480934 -0.0943553 -0.00494804
v -0.0339183 -0.0661819 0.0139858
v -0.0678886 0.00183477 0.0218285
v -0.0339183 0.0698514 0.0139858
v 0.0251897 0.137868 -0.104155
v 0.141172 0.0980249 -0.130931
v 0.189213 0.00183477 -0.142023
v 0.141172 -0.0943553 -0.130931
v 0.0251897 -0.134199 -0.104155
v -0.0907923 -0.0943553 -0.0773782
v -0.138834 0.00183477 -0.066287
v -0.0907923 0.0980249 -0.0773782
v 0.00228604 0.0980249 -0.203362
v 0.0842976 0.0698514 -0.222295
v 0.118268 0.00183477 -0.230138
v 0.0842976 -0.0661819 -0.222295
v 0.00228604 -0.0943553 -0.203362
v -0.0797256 -0.0661819 -0.184428
v -0.113696 0.00183477 -0.176585
v -0.0797256 0.0698514 -0.184428
v -0.00720097 0.00183477 -0.244454
v -0.0741028 -1.43051e-008 0.130516
v -0.0802234 0.0620581 0.104004
v -0.0273127 0.0438817 0.091789
v -0.00539637 -1.43051e-008 0.0867292
v -0.0273127 -0.0438817 0.091789
v -0.0802234 -0.0620581 0.104004
v -0.133134 -0.0438817 0.11622
v -0.155051 -1.43051e-008 0.12128
v -0.133134 0.0438817 0.11622
v -0.095 0.0877634 0.04
v -0.0201729 0.0620581 0.0227248
v 0.0108215 -1.43051e-008 0.0155692
v -0.0201729 -0.0620581 0.0227248
v -0.095 -0.0877634 0.04
v -0.169827 -0.0620581 0.0572752
v -0.200821 -1.43051e-008 0.0644308
v -0.169827 0.0620581 0.0572752
v -0.109777 0.0620581 -0.0240044
v -0.0568659 0.0438817 -0.0362198
v -0.0349495 -1.43051e-008 -0.0412795
v -0.0568659 -0.0438817 -0.0362198
v -0.109777 -0.0620581 -0.0240044
v -0.162687 -0.0438817 -0.011789
v -0.184604 -1.43051e-008 -0.00672916
v -0.162687 0.0438817 -0.011789
v -0.115897 -1.43051e-008 -0.0505158
vn 0.595045 0.526858 0.606911
vn 0.157087 0.715791 0.680416
vn 0.224951 -8.72124e-008 0.97437
vn 0.80769 0 0.589608
vn 0.595045 0.526858 0.606911
vn 0.224951 -8.72124e-008 0.97437
vn 0.80769 0 0.589608
vn 0.224951 -8.72124e-008 0.97437
vn 0.595045 -0.526859 0.606911
vn 0.595045 -0.526859 0.606911
vn 0.224951 -8.72124e-008 0.97437
vn 0.157087 -0.715792 0.680416
vn 0.224951 -8.72124e-008 0.97437
vn -0.268771 -0.526859 0.806339
vn 0.157087 -0.715792 0.680416
vn 0.224951 -8.72124e-008 0.97437
vn -0.46748 -8.50529e-009 0.884004
vn -0.268771 -0.526859 0.806339
vn -0.268771 0.526858 0.806339
vn -0.46748 -8.50529e-009 0.884004
vn 0.224951 -8.72124e-008 0.97437
vn 0.157087 0.715791 0.680416
vn -0.268771 0.526858 0.806339
vn 0.224951 -8.72124e-008 0.97437
vn 0.632062 0.761055 -0.145923
vn 7.54238e-008 1 2.51413e-008
vn 0.157087 0.715791 0.680416
vn 0.595045 0.526858 0.606911
vn 0.97437 -3.64666e-008 -0.224951
vn 0.632062 0.761055 -0.145923
vn 0.595045 0.526858 0.606911
vn 0.80769 0 0.589608
vn 0.97437 -3.64666e-008 -0.224951
vn 0.80769 0 0.589608
vn 0.595045 -0.526859 0.606911
vn 0.632061 -0.761055 -0.145923
vn 0.632061 -0.761055 -0.145923
vn 0.595045 -0.526859 0.606911
vn 0.157087 -0.715792 0.680416
vn 5.86629e-008 -1 8.38042e-009
vn 0.157087 -0.715792 0.680416
vn -0.268771 -0.526859 0.806339
vn -0.632061 -0.761055 0.145923
vn 5.86629e-008 -1 8.38042e-009
vn -0.268771 -0.526859 0.806339
vn -0.46748 -8.50529e-009 0.884004
vn -0.97437 -2.735e-008 0.224951
vn -0.632061 -0.761055 0.145923
vn -0.268771 0.526858 0.806339
vn -0.632062 0.761055 0.145923
vn -0.97437 -2.735e-008 0.224951
vn -0.46748 -8.50529e-009 0.884004
vn 0.157087 0.715791 0.680416
vn 7.54238e-008 1 2.51413e-008
vn -0.632062 0.761055 0.145923
vn -0.268771 0.526858 0.806339
vn -0.157086 0.715791 -0.680416
vn 7.54238e-008 1 2.51413e-008
vn 0.632062 0.761055 -0.145923
vn 0.268771 0.526858 -0.806339
vn 0.46748 -6.80424e-008 -0.884004
vn 0.268771 0.526858 -0.806339
vn 0.632062 0.761055 -0.145923
vn 0.97437 -3.64666e-008 -0.224951
vn 0.268771 -0.526859 -0.806339
vn 0.46748 -6.80424e-008 -0.884004
vn 0.97437 -3.64666e-008 -0.224951
vn 0.632061 -0.761055 -0.145923
vn -0.157086 -0.715792 -0.680416
vn 0.268771 -0.526859 -0.806339
vn 0.632061 -0.761055 -0.145923
vn 5.86629e-008 -1 8.38042e-009
vn -0.632061 -0.761055 0.145923
vn -0.595045 -0.526859 -0.606911
vn -0.157086 -0.715792 -0.680416
vn 5.86629e-008 -1 8.38042e-009
vn -0.97437 -2.735e-008 0.224951
vn -0.80769 -5.95371e-008 -0.589608
vn -0.595045 -0.526859 -0.606911
vn -0.632061 -0.761055 0.145923
vn -0.632062 0.761055 0.145923
vn -0.595045 0.526858 -0.606911
vn -0.80769 -5.95371e-008 -0.589608
vn -0.97437 -2.735e-008 0.224951
vn -0.632062 0.761055 0.145923
vn 7.54238e-008 1 2.51413e-008
vn -0.157086 0.715791 -0.680416
vn -0.595045 0.526858 -0.606911
vn -0.157086 0.715791 -0.680416
vn 0.268771 0.526858 -0.806339
vn -0.224951 -8.51842e-008 -0.97437
vn 0.268771 0.526858 -0.806339
vn 0.46748 -6.80424e-008 -0.884004
vn -0.224951 -8.51842e-008 -0.97437
vn -0.224951 -8.51842e-008 -0.97437
vn 0.46748 -6.80424e-008 -0.884004
vn 0.268771 -0.526859 -0.806339
vn -0.224951 -8.51842e-008 -0.97437
vn 0.268771 -0.526859 -0.806339
vn -0.157086 -0.715792 -0.680416
vn -0.595045 -0.526859 -0.606911
vn -0.224951 -8.51842e-008 -0.97437
vn -0.157086 -0.715792 -0.680416
vn -0.80769 -5.95371e-008 -0.589608
vn -0.224951 -8.51842e-008 -0.97437
vn -0.595045 -0.526859 -0.606911
vn -0.80769 -5.95371e-008 -0.589608
vn -0.595045 0.526858 -0.606911
vn -0.224951 -8.51842e-008 -0.97437
vn -0.595045 0.526858 -0.606911
vn -0.157086 0.715791 -0.680416
vn -0.224951 -8.51842e-008 -0.97437
vn 0.595045 0.526859 0.606911
vn 0.157087 0.715791 0.680416
vn 0.224951 -7.3015e-008 0.97437
vn 0.80769 8.5053e-008 0.589608
vn 0.595045 0.526859 0.606911
vn 0.224951 -7.3015e-008 0.97437
vn 0.80769 8.5053e-008 0.589608
vn 0.224951 -7.3015e-008 0.97437
vn 0.595045 -0.526859 0.606911
vn 0.595045 -0.526859 0.606911
vn 0.224951 -7.3015e-008 0.97437
vn 0.157086 -0.715792 0.680416
vn 0.224951 -7.3015e-008 0.97437
vn -0.268771 -0.526859 0.806339
vn 0.157086 -0.715792 0.680416
vn 0.224951 -7.3015e-008 0.97437
vn -0.46748 4.25265e-008 0.884004
vn -0.268771 -0.526859 0.806339
vn -0.268771 0.526859 0.806339
vn -0.46748 4.25265e-008 0.884004
vn 0.224951 -7.3015e-008 0.97437
vn 0.157087 0.715791 0.680416
vn -0.268771 0.526859 0.806339
vn 0.224951 -7.3015e-008 0.97437
vn 0.632062 0.761055 -0.145923
vn 1.25706e-007 1 1.67608e-008
vn 0.157087 0.715791 0.680416
vn 0.595045 0.526859 0.606911
vn 0.97437 3.64666e-008 -0.224951
vn 0.632062 0.761055 -0.145923
vn 0.595045 0.526859 0.606911
vn 0.80769 8.5053e-008 0.589608
vn 0.97437 3.64666e-008 -0.224951
vn 0.80769 8.5053e-008 0.589608
vn 0.595045 -0.526859 0.606911
vn 0.632061 -0.761055 -0.145923
vn 0.632061 -0.761055 -0.145923
vn 0.595045 -0.526859 0.606911
vn 0.157086 -0.715792 0.680416
vn 8.38042e-008 -1 1.67608e-008
vn 0.157086 -0.715792 0.680416
vn -0.268771 -0.526859 0.806339
vn -0.632061 -0.761055 0.145923
vn 8.38042e-008 -1 1.67608e-008
vn -0.268771 -0.526859 0.806339
vn -0.46748 4.25265e-008 0.884004
vn -0.97437 1.82333e-008 0.224951
vn -0.632061 -0.761055 0.145923
vn -0.268771 0.526859 0.806339
vn -0.632062 0.761055 0.145923
vn -0.97437 1.82333e-008 0.224951
vn -0.46748 4.25265e-008 0.884004
vn 0.157087 0.715791 0.680416
vn 1.25706e-007 1 1.67608e-008
vn -0.632062 0.761055 0.145923
vn -0.268771 0.526859 0.806339
vn -0.157086 0.715791 -0.680416
vn 1.25706e-007 1 1.67608e-008
vn 0.632062 0.761055 -0.145923
vn 0.268771 0.526858 -0.806339
vn 0.46748 -6.37897e-008 -0.884004
vn 0.268771 0.526858 -0.806339
vn 0.632062 0.761055 -0.145923
vn 0.97437 3.64666e-008 -0.224951
vn 0.268771 -0.526859 -0.806339
vn 0.46748 -6.37897e-008 -0.884004
vn 0.97437 3.64666e-008 -0.224951
vn 0.632061 -0.761055 -0.145923
vn -0.157086 -0.715792 -0.680416
vn 0.268771 -0.526859 -0.806339
vn 0.632061 -0.761055 -0.145923
vn 8.38042e-008 -1 1.67608e-008
vn -0.632061 -0.761055 0.145923
vn -0.595045 -0.526859 -0.606911
vn -0.157086 -0.715792 -0.680416
vn 8.38042e-008 -1 1.67608e-008
vn -0.97437 1.82333e-008 0.224951
vn -0.80769 -3.82738e-008 -0.589608
vn -0.595045 -0.526859 -0.606911
vn -0.632061 -0.761055 0.145923
vn -0.632062 0.761055 0.145923
vn -0.595045 0.526858 -0.606911
vn -0.80769 -3.82738e-008 -0.589608
vn -0.97437 1.82333e-008 0.224951
vn -0.632062 0.761055 0.145923
vn 1.25706e-007 1 1.67608e-008
vn -0.157086 0.715791 -0.680416
vn -0.595045 0.526858 -0.606911
vn -0.157086 0.715791 -0.680416
vn 0.268771 0.526858 -0.806339
vn -0.224951 -5.27331e-008 -0.97437
vn 0.268771 0.526858 -0.806339
vn 0.46748 -6.37897e-008 -0.884004
vn -0.224951 -5.27331e-008 -0.97437
vn -0.224951 -5.27331e-008 -0.97437
vn 0.46748 -6.37897e-008 -0.884004
vn 0.268771 -0.526859 -0.806339
vn -0.224951 -5.27331e-008 -0.97437
vn 0.268771 -0.526859 -0.806339
vn -0.157086 -0.715792 -0.680416
vn -0.595045 -0.526859 -0.606911
vn -0.224951 -5.27331e-008 -0.97437
vn -0.157086 -0.715792 -0.680416
vn -0.80769 -3.82738e-008 -0.589608
vn -0.224951 -5.27331e-008 -0.97437
vn -0.595045 -0.526859 -0.606911
vn -0.80769 -3.82738e-008 -0.589608
vn -0.595045 0.526858 -0.606911
vn -0.224951 -5.27331e-008 -0.97437
vn -0.595045 0.526858 -0.606911
vn -0.157086 0.715791 -0.680416
vn -0.224951 -5.27331e-008 -0.97437
vn 0.595045 0.526858 0.606911
vn 0.157087 0.715791 0.680416
vn 0.224951 -9.53252e-008 0.97437
vn 0.80769 0 0.589608
vn 0.595045 0.526858 0.606911
vn 0.224951 -9.53252e-008 0.97437
vn 0.80769 0 0.589608
vn 0.224951 -9.53252e-008 0.97437
vn 0.595045 -0.526859 0.606911
vn 0.595045 -0.526859 0.606911
vn 0.224951 -9.53252e-008 0.97437
vn 0.157086 -0.715792 0.680416
vn 0.224951 -9.53252e-008 0.97437
vn -0.268771 -0.526859 0.806339
vn 0.157086 -0.715792 0.680416
vn 0.224951 -9.53252e-008 0.97437
vn -0.46748 4.25265e-008 0.884004
vn -0.268771 -0.526859 0.806339
vn -0.268771 0.526858 0.806339
vn -0.46748 4.25265e-008 0.884004
vn 0.224951 -9.53252e-008 0.97437
vn 0.157087 0.715791 0.680416
vn -0.268771 0.526858 0.806339
vn 0.224951 -9.53252e-008 0.97437
vn 0.632062 0.761055 -0.145923
vn 6.70434e-008 1 3.35217e-008
vn 0.157087 0.715791 0.680416
vn 0.595045 0.526858 0.606911
vn 0.97437 -3.64666e-008 -0.224951
vn 0.632062 0.761055 -0.145923
vn 0.595045 0.526858 0.606911
vn 0.80769 0 0.589608
vn 0.97437 -3.64666e-008 -0.224951
vn 0.80769 0 0.589608
vn 0.595045 -0.526859 0.606911
vn 0.632061 -0.761055 -0.145923
vn 0.632061 -0.761055 -0.145923
vn 0.595045 -0.526859 0.606911
vn 0.157086 -0.715792 0.680416
vn 5.86629e-008 -1 4.19021e-008
vn 0.157086 -0.715792 0.680416
vn -0.268771 -0.526859 0.806339
vn -0.632061 -0.761055 0.145923
vn 5.86629e-008 -1 4.19021e-008
vn -0.268771 -0.526859 0.806339
vn -0.46748 4.25265e-008 0.884004
vn -0.97437 1.82333e-008 0.224951
vn -0.632061 -0.761055 0.145923
vn -0.268771 0.526858 0.806339
vn -0.632062 0.761055 0.145923
vn -0.97437 1.82333e-008 0.224951
vn -0.46748 4.25265e-008 0.884004
vn 0.157087 0.715791 0.680416
vn 6.70434e-008 1 3.35217e-008
vn -0.632062 0.761055 0.145923
vn -0.268771 0.526858 0.806339
vn -0.157086 0.715791 -0.680416
vn 6.70434e-008 1 3.35217e-008
vn 0.632062 0.761055 -0.145923
vn 0.268771 0.526858 -0.806339
vn 0.46748 -8.08003e-008 -0.884004
vn 0.268771 0.526858 -0.806339
vn 0.632062 0.761055 -0.145923
vn 0.97437 -3.64666e-008 -0.224951
vn 0.268771 -0.526859 -0.806339
vn 0.46748 -8.08003e-008 -0.884004
vn 0.97437 -3.64666e-008 -0.224951
vn 0.632061 -0.761055 -0.145923
vn -0.157086 -0.715792 -0.680416
vn 0.268771 -0.526859 -0.806339
vn 0.632061 -0.761055 -0.145923
vn 5.86629e-008 -1 4.19021e-008
vn -0.632061 -0.761055 0.145923
vn -0.595045 -0.526859 -0.606911
vn -0.157086 -0.715792 -0.680416
vn 5.86629e-008 -1 4.19021e-008
vn -0.97437 1.82333e-008 0.224951
vn -0.80769 -5.95371e-008 -0.589608
vn -0.595045 -0.526859 -0.606911
vn -0.632061 -0.761055 0.145923
vn -0.632062 0.761055 0.145923
vn -0.595045 0.526858 -0.606911
vn -0.80769 -5.95371e-008 -0.589608
vn -0.97437 1.82333e-008 0.224951
vn -0.632062 0.761055 0.145923
vn 6.70434e-008 1 3.35217e-008
vn -0.157086 0.715791 -0.680416
vn -0.595045 0.526858 -0.606911
vn -0.157086 0.715791 -0.680416
vn 0.268771 0.526858 -0.806339
vn -0.224951 -7.90996e-008 -0.97437
vn 0.268771 0.526858 -0.806339
vn 0.46748 -8.08003e-008 -0.884004
vn -0.224951 -7.90996e-008 -0.97437
vn -0.224951 -7.90996e-008 -0.97437
vn 0.46748 -8.08003e-008 -0.884004
vn 0.268771 -0.526859 -0.806339
vn -0.224951 -7.90996e-008 -0.97437
vn 0.268771 -0.526859 -0.806339
vn -0.157086 -0.715792 -0.680416
vn -0.595045 -0.526859 -0.606911
vn -0.224951 -7.90996e-008 -0.97437
vn -0.157086 -0.715792 -0.680416
vn -0.80769 -5.95371e-008 -0.589608
vn -0.224951 -7.90996e-008 -0.97437
vn -0.595045 -0.526859 -0.606911
vn -0.80769 -5.95371e-008 -0.589608
vn -0.595045 0.526858 -0.606911
vn -0.224951 -7.90996e-008 -0.97437
vn -0.595045 0.526858 -0.606911
vn -0.157086 0.715791 -0.680416
vn -0.224951 -7.90996e-008 -0.97437
g group_Default
usemtl Default
s off
f 3//1 2//2 1//3
f 4//4 3//5 1//6
f 4//7 1//8 5//9
f 5//10 1//11 6//12
f 1//13 7//14 6//15
f 1//16 8//17 7//18
f 9//19 8//20 1//21
f 2//22 9//23 1//24
f 11//25 10//26 2//27 3//28
f 12//29 11//30 3//31 4//32
f 12//33 4//34 5//35 13//36
f 13//37 5//38 6//39 14//40
f 6//41 7//42 15//43 14//44
f 7//45 8//46 16//47 15//48
f 9//49 17//50 16//51 8//52
f 2//53 10//54 17//55 9//56
f 18//57 10//58 11//59 19//60
f 20//61 19//62 11//63 12//64
f 21//65 20//66 12//67 13//68
f 22//69 21//70 13//71 14//72
f 15//73 23//74 22//75 14//76
f 16//77 24//78 23//79 15//80
f 17//81 25//82 24//83 16//84
f 17//85 10//86 18//87 25//88
f 18//89 19//90 26//91
f 19//92 20//93 26//94
f 26//95 20//96 21//97
f 26//98 21//99 22//100
f 23//101 26//102 22//103
f 24//104 26//105 23//106
f 24//107 25//108 26//109
f 25//110 18//111 26//112
f 29//113 28//114 27//115
f 30//116 29//117 27//118
f 30//119 27//120 31//121
f 31//122 27//123 32//124
f 27//125 33//126 32//127
f 27//128 34//129 33//130
f 35//131 34//132 27//133
f 28//134 35//135 27//136
f 37//137 36//138 28//139 29//140
f 38//141 37//142 29//143 30//144
f 38//145 30//146 31//147 39//148
f 39//149 31//150 32//151 40//152
f 32//153 33//154 41//155 40//156
f 33//157 34//158 42//159 41//160
f 35//161 43//162 42//163 34//164
f 28//165 36//166 43//167 35//168
f 44//169 36//170 37//171 45//172
f 46//173 45//174 37//175 38//176
f 47//177 46//178 38//179 39//180
f 48//181 47//182 39//183 40//184
f 41//185 49//186 48//187 40//188
f 42//189 50//190 49//191 41//192
f 43//193 51//194 50//195 42//196
f 43//197 36//198 44//199 51//200
f 44//201 45//202 52//203
f 45//204 46//205 52//206
f 52//207 46//208 47//209
f 52//210 47//211 48//212
f 49//213 52//214 48//215
f 50//216 52//217 49//218
f 50//219 51//220 52//221
f 51//222 44//223 52//224
f 55//225 54//226 53//227
f 56//228 55//229 53//230
f 56//231 53//232 57//233
f 57//234 53//235 58//236
f 53//237 59//238 58//239
f 53//240 60//241 59//242
f 61//243 60//244 53//245
f 54//246 61//247 53//248
f 63//249 62//250 54//251 55//252
f 64//253 63//254 55//255 56//256
f 64//257 56//258 57//259 65//260
f 65//261 57//262 58//263 66//264
f 58//265 59//266 67//267 66//268
f 59//269 60//270 68//271 67//272
f 61//273 69//274 68//275 60//276
f 54//277 62//278 69//279 61//280
f 70//281 62//282 63//283 71//284
f 72//285 71//286 63//287 64//288
f 73//289 72//290 64//291 65//292
f 74//293 73//294 65//295 66//296
f 67//297 75//298 74//299 66//300
f 68//301 76//302 75//303 67//304
f 69//305 77//306 76//307 68//308
f 69//309 62//310 70//311 77//312
f 70//313 71//314 78//315
f 71//316 72//317 78//318
f 78//319 72//320 73//321
f 78//322 73//323 74//324
f 75//325 78//326 74//327
f 76//328 78//329 75//330
f 76//331 77//332 78//333
f 77//334 70//335 78//336
