# Blender v2.79 (sub 0) OBJ File: 'Rover.blend'
# www.blender.org
mtllib Rover.mtl
o Cube
v -0.100000 0.000451 -0.100000
v -0.100000 0.105413 -0.100000
v 0.100000 0.000451 -0.100000
v 0.100000 0.105413 -0.100000
v -0.100000 0.000451 0.172404
v -0.100000 0.105413 0.100000
v 0.100000 0.000451 0.172404
v 0.100000 0.105413 0.100000
v -0.157249 0.000451 -0.100000
v -0.157249 0.105413 -0.100000
v -0.157249 0.000451 0.172404
v -0.157249 0.105413 0.100000
v -0.100000 0.041973 -0.147097
v -0.100000 0.146935 -0.104684
v -0.100000 0.146935 0.095316
v -0.100000 0.041973 0.203710
v -0.157249 0.041973 -0.147097
v -0.157249 0.146935 -0.104684
v -0.157249 0.146935 0.095316
v -0.157249 0.041973 0.203710
v 0.155193 0.105413 -0.100000
v 0.155193 0.000451 -0.100000
v 0.155193 0.000451 0.172404
v 0.155193 0.105413 0.100000
v 0.100000 0.146930 -0.104586
v 0.100000 0.041968 -0.147145
v 0.100000 0.146930 0.095414
v 0.100000 0.041968 0.203929
v 0.155193 0.146930 -0.104586
v 0.155193 0.041968 -0.147145
v 0.155193 0.146930 0.095414
v 0.155193 0.041968 0.203929
v 0.069813 0.068917 0.081770
v 0.069813 0.016765 0.153915
v -0.069813 0.016765 0.153915
v -0.069813 0.068917 0.081770
vn 0.0000 0.0000 -1.0000
vn -1.0000 0.0000 0.0000
vn 0.0000 0.7498 0.6616
vn 1.0000 0.0000 0.0000
vn 0.0000 -1.0000 0.0000
vn 0.0000 1.0000 -0.0000
vn 0.0000 0.7184 0.6956
vn 0.0000 0.3747 -0.9272
vn 0.0000 -0.6020 0.7985
vn 0.0000 -0.7501 -0.6613
vn 0.0000 0.3758 -0.9267
vn 0.0000 0.7188 0.6952
vn 0.0000 -0.6047 0.7964
vn 0.0000 -0.7505 -0.6609
vn 0.0000 0.8104 0.5858
vn -0.0000 -0.4469 0.8946
vn -0.5589 0.5615 0.6103
vn 0.5589 0.5615 0.6103
usemtl None
s off
f 1//1 2//1 4//1 3//1
f 3//2 4//2 25//2 26//2
f 5//3 7//3 34//3 35//3
f 6//4 2//4 14//4 15//4
f 3//5 7//5 5//5 1//5
f 8//6 4//6 2//6 6//6
f 11//2 12//2 10//2 9//2
f 12//2 11//2 20//2 19//2
f 10//2 12//2 19//2 18//2
f 1//5 5//5 11//5 9//5
f 15//6 14//6 18//6 19//6
f 16//7 15//7 19//7 20//7
f 14//8 13//8 17//8 18//8
f 5//4 6//4 15//4 16//4
f 11//9 5//9 16//9 20//9
f 2//4 1//4 13//4 14//4
f 9//2 10//2 18//2 17//2
f 1//10 9//10 17//10 13//10
f 22//4 21//4 24//4 23//4
f 4//2 8//2 27//2 25//2
f 24//4 21//4 29//4 31//4
f 7//5 3//5 22//5 23//5
f 25//6 27//6 31//6 29//6
f 26//11 25//11 29//11 30//11
f 27//12 28//12 32//12 31//12
f 21//4 22//4 30//4 29//4
f 7//13 23//13 32//13 28//13
f 23//4 24//4 31//4 32//4
f 8//2 7//2 28//2 27//2
f 22//14 3//14 26//14 30//14
f 34//15 33//15 36//15 35//15
f 8//16 6//16 36//16 33//16
f 7//17 8//17 33//17 34//17
f 6//18 5//18 35//18 36//18
